<svg xmlns="http://www.w3.org/2000/svg" xmlns:xlink="http://www.w3.org/1999/xlink" version="1.1" width="256" height="256" viewBox="0 0 256 256" xml:space="preserve">

<defs>
</defs>
<g style="stroke: none; stroke-width: 0; stroke-dasharray: none; stroke-linecap: butt; stroke-linejoin: miter; stroke-miterlimit: 10; fill: none; fill-rule: nonzero; opacity: 1;" transform="translate(1.4065934065934016 1.4065934065934016) scale(2.81 2.81)" >
	<path d="M 44.913 26.682 H 15.231 c -8.28 0 -15.002 -3.611 -15.211 -11.841 C 0.016 14.972 0 15.099 0 15.231 v 31.303 c 8.265 10.233 20.908 16.784 35.087 16.784 h 0.682 c 8.28 0 12.002 3.611 12.211 11.841 c 0.003 -0.131 0.02 -0.258 0.02 -0.39 C 48 83.181 44.181 90 35.769 90 h 39 C 83.181 90 90 83.181 90 74.769 C 90 42.732 69.814 26.682 44.913 26.682 z" style="stroke: none; stroke-width: 1; stroke-dasharray: none; stroke-linecap: butt; stroke-linejoin: miter; stroke-miterlimit: 10; fill: rgb(1,92,138); fill-rule: nonzero; opacity: 1;" transform=" matrix(1 0 0 1 0 0) " stroke-linecap="round" />
	<path d="M 90 74.769 L 90 74.769 c 0 -24.901 -20.186 -45.087 -45.087 -45.087 H 15.231 c -8.28 0 -15.002 -6.611 -15.211 -14.841 C 0.016 14.972 0 15.099 0 15.231 C 0 6.819 6.819 0 15.231 0 h 59.538 C 83.181 0 90 6.819 90 15.231 V 74.769" style="stroke: none; stroke-width: 1; stroke-dasharray: none; stroke-linecap: butt; stroke-linejoin: miter; stroke-miterlimit: 10; fill: rgb(0,102,153); fill-rule: nonzero; opacity: 1;" transform=" matrix(1 0 0 1 0 0) " stroke-linecap="round" />
	<path d="M 0 74.769 V 43.534 c 8.265 10.233 20.908 16.784 35.087 16.784 h 0.682 c 8.28 0 15.002 6.611 15.211 14.841 c 0.003 -0.131 0.02 -0.258 0.02 -0.39 C 51 83.181 44.181 90 35.769 90 H 15.231 C 6.819 90 0 83.181 0 74.769 z" style="stroke: none; stroke-width: 1; stroke-dasharray: none; stroke-linecap: butt; stroke-linejoin: miter; stroke-miterlimit: 10; fill: rgb(0,83,124); fill-rule: nonzero; opacity: 1;" transform=" matrix(1 0 0 1 0 0) " stroke-linecap="round" />
	<path d="M 7.77 12.829 h 3.32 v 10.678 H 7.77 V 12.829 z M 9.43 7.521 c 1.061 0 1.923 0.862 1.923 1.925 c 0 1.062 -0.862 1.924 -1.923 1.924 c -1.064 0 -1.923 -0.862 -1.923 -1.924 C 7.507 8.383 8.366 7.521 9.43 7.521" style="stroke: none; stroke-width: 1; stroke-dasharray: none; stroke-linecap: butt; stroke-linejoin: miter; stroke-miterlimit: 10; fill: rgb(255,255,255); fill-rule: nonzero; opacity: 1;" transform=" matrix(2.81 0 0 2.81 1.4065934065934016 1.4065934065934016) " stroke-linecap="round" />
	<path d="M 13.171 12.829 h 3.183 v 1.46 H 16.4 c 0.443 -0.84 1.526 -1.725 3.14 -1.725 c 3.361 0 3.981 2.211 3.981 5.086 v 5.856 h -3.317 v -5.193 c 0 -1.239 -0.022 -2.831 -1.725 -2.831 c -1.727 0 -1.991 1.35 -1.991 2.742 v 5.282 h -3.317 V 12.829 z" style="stroke: none; stroke-width: 1; stroke-dasharray: none; stroke-linecap: butt; stroke-linejoin: miter; stroke-miterlimit: 10; fill: rgb(255,255,255); fill-rule: nonzero; opacity: 1;" transform=" matrix(2.81 0 0 2.81 1.4065934065934016 1.4065934065934016) " stroke-linecap="round" />
</g>
</svg>